<?xml version="1.0" standalone="no"?>
<!DOCTYPE svg PUBLIC "-//W3C//DTD SVG 20010904//EN"
 "http://www.w3.org/TR/2001/REC-SVG-20010904/DTD/svg10.dtd">
<svg version="1.0" xmlns="http://www.w3.org/2000/svg"
 width="2223.000000pt" height="2223.000000pt" viewBox="0 0 2223.000000 2223.000000"
 preserveAspectRatio="xMidYMid meet">

<g transform="translate(0.000000,2223.000000) scale(0.100000,-0.100000)"
fill="#000000" stroke="none">
<path d="M10695 22224 c-27 -2 -135 -8 -240 -14 -1799 -102 -3553 -647 -5095
-1583 -563 -342 -1079 -721 -1595 -1173 -217 -190 -680 -647 -886 -875 -541
-599 -1043 -1288 -1414 -1944 -37 -66 -78 -138 -90 -160 -64 -113 -237 -451
-312 -610 -551 -1167 -897 -2432 -1013 -3697 -37 -408 -45 -598 -45 -1058 1
-761 56 -1366 191 -2075 362 -1905 1211 -3671 2475 -5146 394 -460 859 -919
1325 -1308 1709 -1428 3803 -2307 6014 -2525 387 -38 642 -50 1105 -50 571 0
934 23 1450 90 1712 223 3339 840 4773 1810 933 631 1771 1407 2477 2293 673
845 1227 1798 1625 2796 395 988 655 2075 744 3115 34 386 41 560 41 1000 0
460 -8 650 -45 1058 -116 1265 -462 2530 -1013 3697 -75 159 -248 497 -312
610 -12 22 -53 94 -90 160 -371 656 -872 1345 -1414 1944 -211 233 -682 697
-906 893 -990 861 -2065 1518 -3245 1983 -1079 425 -2140 664 -3335 751 -203
14 -1038 28 -1170 18z m3582 -4399 c64 -19 142 -88 174 -152 29 -61 29 -101
-5 -523 -14 -179 -31 -410 -38 -514 l-12 -189 29 -21 c81 -57 175 -161 214
-236 58 -112 70 -168 82 -405 9 -193 8 -289 -7 -630 -21 -493 -112 -1207 -240
-1895 -163 -876 -370 -1739 -655 -2733 -44 -153 -79 -282 -77 -286 3 -7 366
137 688 273 1277 540 2393 1061 3535 1649 256 132 318 154 460 164 168 12 376
-50 508 -151 26 -20 49 -36 52 -36 2 0 48 26 102 58 369 220 931 545 973 562
82 34 205 9 282 -59 117 -102 119 -299 5 -409 -28 -27 -642 -331 -1046 -518
-66 -31 -73 -36 -66 -56 4 -13 9 -77 12 -143 8 -177 -29 -314 -121 -458 -50
-79 -147 -175 -226 -226 -81 -53 -899 -462 -1275 -638 -557 -261 -1318 -602
-1680 -753 -49 -21 -160 -67 -245 -102 -657 -275 -1480 -590 -2125 -813 -137
-47 -286 -99 -330 -114 -57 -20 -84 -35 -93 -52 -7 -13 -50 -130 -96 -259
-349 -974 -759 -1914 -1109 -2540 -387 -693 -723 -1065 -1065 -1180 -297 -99
-589 -27 -812 200 -279 284 -411 771 -470 1725 -16 278 -19 334 -30 695 -6
190 -13 368 -16 395 l-5 51 -212 -32 c-319 -48 -767 -99 -1112 -126 -218 -17
-1057 -17 -1275 0 -1061 85 -1893 377 -2537 891 -636 508 -1010 1110 -1108
1783 -82 561 43 1164 359 1738 543 984 1668 1849 2805 2155 316 85 680 132
941 122 334 -14 638 -85 908 -212 146 -70 212 -110 352 -214 237 -176 444
-421 651 -766 l24 -40 -45 34 c-169 127 -405 256 -594 326 -142 52 -378 110
-536 132 -191 26 -721 26 -930 0 -388 -48 -611 -109 -945 -260 -236 -106 -514
-280 -755 -473 -260 -208 -569 -539 -740 -794 -316 -470 -470 -954 -431 -1358
13 -141 57 -322 105 -433 154 -355 501 -704 953 -958 260 -146 662 -275 1028
-330 302 -46 452 -55 865 -55 509 1 835 27 1405 115 226 34 694 119 749 136
18 5 19 13 12 151 -16 370 -87 987 -166 1465 -162 971 -463 1776 -848 2267
-28 35 -49 66 -47 68 6 7 111 -36 204 -82 131 -66 261 -147 391 -244 132 -98
393 -354 492 -482 221 -287 382 -615 483 -985 101 -369 231 -1217 291 -1888 5
-65 9 -77 23 -73 9 3 84 23 166 45 430 114 920 263 1476 447 l407 135 20 77
c11 42 58 217 105 387 265 966 559 2273 726 3235 177 1021 245 1615 260 2285
7 330 8 342 33 407 60 159 174 287 321 358 l85 41 1 549 c1 301 6 563 11 580
26 91 92 160 183 191 64 23 108 23 174 4z"/>
<path d="M11640 7974 c-285 -82 -930 -242 -1209 -299 l-33 -7 6 -92 c69 -1035
101 -1384 156 -1715 39 -229 89 -419 108 -407 17 10 130 176 202 295 235 391
547 1103 810 1846 135 380 149 425 132 424 -9 0 -87 -21 -172 -45z"/>
</g>
</svg>
